<?xml version="1.0" encoding="UTF-8"?>
<svg xmlns="http://www.w3.org/2000/svg" xmlns:xlink="http://www.w3.org/1999/xlink" width="150px" height="49px" viewBox="0 0 151 49" version="1.1">
<g id="surface1">
<path style=" stroke:none;fill-rule:nonzero;fill:rgb(82.745099%,65.882355%,29.803923%);fill-opacity:1;" d="M 26.101562 6.148438 L 27.058594 6.222656 L 28.902344 6.59375 L 30.820312 7.183594 L 32.367188 7.851562 L 33.546875 8.441406 L 35.023438 9.332031 L 36.203125 10.21875 L 37.160156 11.03125 L 37.898438 11.699219 L 38.855469 12.660156 L 39.519531 13.472656 L 40.40625 14.585938 L 40.921875 15.324219 L 40.992188 15.472656 L 40.992188 17.839844 L 40.921875 18.359375 L 40.847656 18.433594 L 36.421875 18.433594 L 36.347656 18.359375 L 36.273438 16.878906 L 35.613281 16.136719 L 35.09375 15.546875 L 34.285156 14.660156 L 33.546875 13.992188 L 32.292969 13.105469 L 31.039062 12.4375 L 30.746094 12.4375 L 30.671875 15.621094 L 30.671875 22.132812 L 40.773438 22.207031 L 40.992188 22.355469 L 40.992188 33.15625 L 40.921875 33.75 L 40.183594 34.785156 L 39.519531 35.597656 L 38.855469 36.339844 L 38.339844 36.929688 L 37.453125 37.820312 L 36.867188 38.335938 L 35.6875 39.300781 L 34.359375 40.1875 L 32.808594 41.074219 L 31.554688 41.667969 L 29.933594 42.257812 L 28.164062 42.703125 L 26.175781 43 L 26.027344 42.925781 L 26.027344 31.824219 L 26.320312 31.675781 L 30.230469 31.675781 L 30.597656 31.75 L 30.671875 33.527344 L 30.671875 36.636719 L 31.410156 36.414062 L 32.441406 35.820312 L 33.472656 35.082031 L 34.359375 34.265625 L 35.464844 33.15625 L 36.203125 32.195312 L 36.273438 31.972656 L 36.273438 27.535156 L 36.203125 27.015625 L 26.101562 26.941406 L 26.027344 26.867188 L 26.027344 6.222656 Z M 26.101562 6.148438 "/>
<path style=" stroke:none;fill-rule:nonzero;fill:rgb(82.745099%,65.882355%,29.803923%);fill-opacity:1;" d="M 22.710938 6.148438 L 23.226562 6.148438 L 23.296875 6.222656 L 23.371094 42.851562 L 23.226562 43 L 22.265625 42.925781 L 20.351562 42.554688 L 19.023438 42.109375 L 18.800781 41.964844 L 18.726562 40.558594 L 18.652344 27.089844 L 18.578125 27.015625 L 13.125 27.015625 L 13.050781 27.089844 L 12.976562 29.160156 L 12.902344 38.707031 L 12.609375 38.558594 L 11.722656 37.746094 L 10.175781 36.191406 L 9.363281 35.15625 L 8.625 34.121094 L 8.332031 33.527344 L 8.332031 15.546875 L 8.699219 14.878906 L 9.4375 13.84375 L 10.25 12.882812 L 10.765625 12.289062 L 11.132812 11.847656 L 11.722656 11.328125 L 12.609375 10.515625 L 12.902344 10.441406 L 12.976562 12.734375 L 13.050781 22.058594 L 16.21875 22.132812 L 18.726562 22.132812 L 18.726562 7.183594 L 18.949219 6.960938 L 20.128906 6.59375 L 21.601562 6.296875 Z M 22.710938 6.148438 "/>
<path style=" stroke:none;fill-rule:nonzero;fill:rgb(82.745099%,65.882355%,29.803923%);fill-opacity:1;" d="M 23.59375 1.117188 L 25.730469 1.117188 L 27.945312 1.339844 L 29.933594 1.710938 L 31.335938 2.078125 L 32.882812 2.597656 L 34.800781 3.410156 L 36.496094 4.300781 L 38.046875 5.335938 L 38.929688 6 L 39.742188 6.667969 L 40.625 7.480469 L 42.246094 9.109375 L 42.910156 9.921875 L 43.648438 10.882812 L 44.53125 12.214844 L 45.417969 13.769531 L 46.230469 15.472656 L 46.890625 17.25 L 47.410156 19.171875 L 47.777344 21.097656 L 47.925781 22.429688 L 48 24.5 L 47.925781 26.644531 L 47.703125 28.421875 L 47.261719 30.566406 L 46.671875 32.492188 L 45.859375 34.414062 L 44.902344 36.265625 L 44.015625 37.671875 L 43.132812 38.855469 L 42.542969 39.59375 L 41.65625 40.558594 L 41.585938 40.707031 L 41.4375 40.707031 L 41.289062 41 L 40.035156 42.183594 L 39.226562 42.851562 L 38.046875 43.738281 L 36.792969 44.554688 L 35.613281 45.21875 L 34.433594 45.8125 L 33.105469 46.402344 L 31.039062 47.070312 L 29.195312 47.511719 L 27.355469 47.808594 L 25.4375 47.957031 L 23.742188 47.957031 L 21.308594 47.734375 L 19.390625 47.363281 L 17.546875 46.847656 L 15.484375 46.105469 L 13.34375 45.070312 L 11.648438 44.035156 L 10.25 43 L 9.4375 42.332031 L 8.554688 41.519531 L 7.078125 40.039062 L 6.265625 39.003906 L 5.53125 38.042969 L 4.792969 36.929688 L 3.90625 35.378906 L 3.097656 33.675781 L 2.507812 32.121094 L 1.992188 30.417969 L 1.546875 28.125 L 1.328125 26.203125 L 1.253906 24.945312 L 1.253906 23.980469 L 1.402344 21.984375 L 1.695312 20.058594 L 2.136719 18.210938 L 2.875 15.992188 L 3.539062 14.511719 L 4.421875 12.808594 L 5.308594 11.402344 L 6.195312 10.21875 L 6.78125 9.480469 L 7.519531 8.664062 L 8.035156 8.074219 L 8.847656 7.257812 L 9.660156 6.59375 L 10.542969 5.851562 L 11.871094 4.890625 L 12.976562 4.226562 L 14.597656 3.335938 L 16.589844 2.523438 L 18.507812 1.929688 L 20.054688 1.5625 L 21.972656 1.265625 Z M 23.59375 3.261719 L 21.898438 3.410156 L 20.128906 3.707031 L 18.433594 4.152344 L 16.738281 4.742188 L 15.261719 5.410156 L 14.007812 6.074219 L 12.535156 7.035156 L 11.355469 7.925781 L 10.542969 8.589844 L 9.4375 9.625 L 8.40625 10.738281 L 7.59375 11.773438 L 6.710938 13.03125 L 5.824219 14.585938 L 5.234375 15.769531 L 4.644531 17.175781 L 4.054688 19.023438 L 3.6875 20.726562 L 3.390625 23.167969 L 3.390625 26.128906 L 3.613281 27.976562 L 4.054688 30.125 L 4.792969 32.34375 L 5.382812 33.675781 L 6.265625 35.378906 L 6.929688 36.414062 L 7.667969 37.449219 L 8.257812 38.1875 L 8.921875 38.929688 L 9.4375 39.519531 L 10.617188 40.632812 L 11.871094 41.59375 L 12.902344 42.332031 L 14.304688 43.148438 L 15.410156 43.738281 L 17.179688 44.480469 L 18.726562 44.996094 L 20.570312 45.441406 L 21.972656 45.664062 L 23.816406 45.8125 L 25.511719 45.8125 L 27.355469 45.664062 L 29.050781 45.367188 L 30.597656 44.996094 L 32.515625 44.332031 L 34.359375 43.515625 L 35.90625 42.628906 L 37.085938 41.816406 L 38.046875 41.074219 L 39.003906 40.261719 L 40.035156 39.300781 L 40.550781 38.707031 L 41.4375 37.671875 L 42.46875 36.265625 L 43.132812 35.15625 L 43.871094 33.824219 L 44.679688 31.898438 L 45.269531 29.976562 L 45.640625 28.125 L 45.859375 26.425781 L 45.933594 25.09375 L 45.933594 24.277344 L 45.785156 22.132812 L 45.417969 19.914062 L 44.976562 18.210938 L 44.460938 16.730469 L 43.871094 15.398438 L 43.058594 13.84375 L 42.171875 12.4375 L 41.140625 11.105469 L 40.476562 10.367188 L 39.960938 9.773438 L 39.078125 8.886719 L 38.265625 8.222656 L 37.382812 7.480469 L 36.421875 6.816406 L 34.949219 5.925781 L 33.695312 5.261719 L 31.703125 4.445312 L 29.714844 3.855469 L 27.871094 3.484375 L 26.765625 3.335938 L 25.585938 3.261719 Z M 23.59375 3.261719 "/>
<path style=" stroke:none;fill-rule:nonzero;fill:rgb(96.078432%,81.176472%,43.921569%);fill-opacity:1;" d="M 22.710938 6.148438 L 23.226562 6.148438 L 23.296875 6.222656 L 23.296875 24.054688 L 23.003906 23.90625 L 22.339844 23.835938 L 20.421875 23.835938 L 18.800781 23.980469 L 18.0625 24.054688 L 17.105469 24.054688 L 14.671875 24.128906 L 12.535156 24.128906 L 12.09375 24.054688 L 11.207031 24.054688 L 11.132812 24.128906 L 9.660156 24.128906 L 9.140625 24.054688 L 8.847656 23.980469 L 8.554688 24.054688 L 8.40625 23.980469 L 8.40625 30.714844 L 8.332031 30.714844 L 8.332031 15.546875 L 8.699219 14.878906 L 9.4375 13.84375 L 10.25 12.882812 L 10.765625 12.289062 L 11.132812 11.847656 L 11.722656 11.328125 L 12.609375 10.515625 L 12.902344 10.441406 L 12.976562 12.734375 L 13.050781 22.058594 L 16.21875 22.132812 L 18.726562 22.132812 L 18.726562 7.183594 L 18.949219 6.960938 L 20.128906 6.59375 L 21.601562 6.296875 Z M 22.710938 6.148438 "/>
<path style=" stroke:none;fill-rule:nonzero;fill:rgb(96.078432%,81.176472%,43.921569%);fill-opacity:1;" d="M 26.101562 6.148438 L 27.058594 6.222656 L 28.902344 6.59375 L 30.820312 7.183594 L 32.367188 7.851562 L 33.546875 8.441406 L 35.023438 9.332031 L 36.203125 10.21875 L 37.160156 11.03125 L 37.898438 11.699219 L 38.855469 12.660156 L 39.519531 13.472656 L 40.40625 14.585938 L 40.921875 15.324219 L 40.992188 15.472656 L 40.992188 17.839844 L 40.921875 18.359375 L 40.847656 18.433594 L 36.421875 18.433594 L 36.347656 18.359375 L 36.273438 16.878906 L 35.613281 16.136719 L 35.09375 15.546875 L 34.285156 14.660156 L 33.546875 13.992188 L 32.292969 13.105469 L 31.039062 12.4375 L 30.746094 12.4375 L 30.671875 15.621094 L 30.671875 22.132812 L 39.152344 22.207031 L 39.296875 22.355469 L 38.929688 22.429688 L 38.414062 22.355469 L 38.046875 22.503906 L 37.160156 22.574219 L 36.570312 22.503906 L 36.570312 22.648438 L 36.347656 22.574219 L 35.316406 22.796875 L 34.136719 22.945312 L 33.03125 23.09375 L 31.628906 23.316406 L 30.96875 23.316406 L 30.449219 23.390625 L 30.449219 23.242188 L 29.789062 23.316406 L 29.125 23.242188 L 27.574219 23.316406 L 26.910156 23.390625 L 26.25 23.316406 L 26.027344 23.167969 L 26.027344 6.222656 Z M 26.101562 6.148438 "/>
<path style=" stroke:none;fill-rule:nonzero;fill:rgb(96.078432%,81.176472%,43.921569%);fill-opacity:1;" d="M 23.59375 1.117188 L 25.730469 1.117188 L 27.945312 1.339844 L 29.933594 1.710938 L 31.335938 2.078125 L 32.882812 2.597656 L 34.800781 3.410156 L 36.496094 4.300781 L 38.046875 5.335938 L 38.929688 6 L 39.742188 6.667969 L 40.625 7.480469 L 42.246094 9.109375 L 42.910156 9.921875 L 43.648438 10.882812 L 44.53125 12.214844 L 45.417969 13.769531 L 46.230469 15.472656 L 46.890625 17.25 L 47.410156 19.171875 L 47.703125 20.652344 L 47.703125 21.023438 L 47.554688 20.875 L 47.261719 19.691406 L 47.113281 19.691406 L 47.039062 19.542969 L 46.890625 19.617188 L 46.890625 19.320312 L 46.746094 19.320312 L 46.820312 18.875 L 46.597656 18.800781 L 46.746094 18.652344 L 46.820312 18.359375 L 46.671875 18.136719 L 46.523438 17.691406 L 46.375 17.542969 L 46.007812 17.839844 L 45.785156 17.765625 L 45.269531 17.027344 L 45.269531 16.878906 L 45.050781 16.878906 L 45.195312 17.839844 L 45.34375 18.285156 L 45.492188 18.359375 L 45.492188 18.507812 L 45.640625 18.582031 L 45.710938 19.023438 L 45.566406 19.246094 L 45.492188 19.171875 L 45.492188 19.914062 L 45.34375 19.914062 L 44.902344 18.210938 L 44.386719 16.730469 L 43.796875 15.398438 L 42.984375 13.84375 L 42.101562 12.4375 L 41.066406 11.105469 L 40.40625 10.367188 L 39.886719 9.773438 L 39.078125 8.960938 L 38.265625 8.292969 L 37.382812 7.554688 L 36.421875 6.890625 L 34.949219 6 L 33.695312 5.335938 L 31.703125 4.519531 L 29.714844 3.929688 L 27.871094 3.558594 L 26.765625 3.410156 L 25.585938 3.335938 L 23.59375 3.335938 L 21.898438 3.484375 L 20.128906 3.78125 L 18.433594 4.226562 L 16.738281 4.816406 L 15.261719 5.484375 L 14.007812 6.148438 L 12.535156 7.109375 L 11.355469 8 L 10.542969 8.664062 L 9.4375 9.699219 L 8.480469 10.738281 L 7.667969 11.773438 L 6.78125 13.03125 L 5.898438 14.585938 L 5.308594 15.769531 L 4.71875 17.175781 L 4.128906 19.023438 L 3.761719 20.726562 L 3.464844 23.167969 L 3.464844 26.128906 L 3.539062 27.238281 L 3.242188 26.792969 L 2.875 26.71875 L 2.800781 26.570312 L 2.507812 26.425781 L 2.65625 26.203125 L 2.65625 25.90625 L 2.800781 25.832031 L 2.800781 25.609375 L 2.875 25.238281 L 2.875 24.5 L 2.800781 24.277344 L 1.992188 24.128906 L 1.84375 24.5 L 1.695312 25.09375 L 1.84375 25.832031 L 1.84375 26.203125 L 2.210938 26.351562 L 1.992188 26.570312 L 1.769531 27.015625 L 1.695312 27.828125 L 1.769531 27.976562 L 1.769531 28.71875 L 1.621094 28.570312 L 1.402344 27.015625 L 1.253906 24.945312 L 1.253906 23.980469 L 1.402344 21.984375 L 1.695312 20.058594 L 2.136719 18.210938 L 2.875 15.992188 L 3.539062 14.511719 L 4.421875 12.808594 L 5.308594 11.402344 L 6.195312 10.21875 L 6.78125 9.480469 L 7.519531 8.664062 L 8.035156 8.074219 L 8.847656 7.257812 L 9.660156 6.59375 L 10.542969 5.851562 L 11.871094 4.890625 L 12.976562 4.226562 L 14.597656 3.335938 L 16.589844 2.523438 L 18.507812 1.929688 L 20.054688 1.5625 L 21.972656 1.265625 Z M 23.59375 1.117188 "/>
<path style=" stroke:none;fill-rule:nonzero;fill:rgb(96.470588%,81.568629%,44.313726%);fill-opacity:1;" d="M 58.910156 17.765625 L 60.53125 17.765625 L 60.53125 18.210938 L 59.574219 18.507812 L 59.425781 18.726562 L 59.351562 19.914062 L 59.351562 22.574219 L 64.292969 22.574219 L 64.292969 19.097656 L 64.144531 18.582031 L 63.777344 18.359375 L 63.1875 18.285156 L 63.039062 17.914062 L 63.113281 17.839844 L 64.441406 17.765625 L 67.242188 17.765625 L 67.316406 18.0625 L 67.09375 18.285156 L 66.359375 18.433594 L 66.136719 18.949219 L 66.136719 27.460938 L 66.503906 27.828125 L 67.242188 28.125 L 67.242188 28.421875 L 63.1875 28.421875 L 63.113281 28.273438 L 63.261719 28.050781 L 63.925781 27.902344 L 64.21875 27.609375 L 64.292969 27.386719 L 64.292969 23.316406 L 59.351562 23.316406 L 59.351562 27.609375 L 59.648438 27.828125 L 60.386719 28.050781 L 60.460938 28.421875 L 56.476562 28.421875 L 56.402344 28.125 L 57.140625 27.828125 L 57.4375 27.535156 L 57.507812 25.386719 L 57.507812 20.652344 L 57.4375 18.726562 L 56.992188 18.359375 L 56.328125 18.210938 L 56.257812 17.988281 L 56.328125 17.839844 Z M 58.910156 17.765625 "/>
<path style=" stroke:none;fill-rule:nonzero;fill:rgb(83.137256%,66.274512%,30.19608%);fill-opacity:1;" d="M 89.953125 16.878906 L 90.613281 16.878906 L 90.613281 27.3125 L 90.835938 27.683594 L 91.648438 27.976562 L 91.648438 28.199219 L 91.277344 28.347656 L 89.582031 28.570312 L 89.140625 28.570312 L 88.992188 28.199219 L 88.992188 27.753906 L 88.035156 28.347656 L 87.074219 28.644531 L 86.265625 28.644531 L 85.527344 28.421875 L 84.9375 28.050781 L 84.347656 27.460938 L 83.90625 26.496094 L 83.683594 25.683594 L 83.683594 23.980469 L 83.90625 23.167969 L 84.347656 22.28125 L 85.011719 21.539062 L 85.894531 21.023438 L 86.707031 20.800781 L 87.886719 20.800781 L 88.992188 21.097656 L 88.917969 18.210938 L 88.625 17.765625 L 87.738281 17.617188 L 87.664062 17.25 L 88.035156 17.101562 Z M 87.222656 21.316406 L 86.558594 21.539062 L 86.117188 21.910156 L 85.75 22.503906 L 85.453125 23.390625 L 85.378906 23.761719 L 85.378906 25.386719 L 85.675781 26.496094 L 86.117188 27.164062 L 86.558594 27.535156 L 87.222656 27.753906 L 88.035156 27.753906 L 88.625 27.460938 L 88.917969 27.089844 L 88.992188 26.792969 L 88.992188 22.796875 L 88.917969 22.058594 L 88.550781 21.613281 L 88.109375 21.390625 L 87.8125 21.316406 Z M 87.222656 21.316406 "/>
<path style=" stroke:none;fill-rule:nonzero;fill:rgb(96.470588%,81.568629%,44.313726%);fill-opacity:1;" d="M 118.78125 17.617188 L 119.445312 17.617188 L 120.402344 17.765625 L 120.917969 17.988281 L 121.433594 17.914062 L 121.875 17.839844 L 121.875 20.652344 L 121.507812 20.726562 L 121.359375 20.652344 L 120.917969 19.46875 L 120.476562 18.800781 L 119.886719 18.433594 L 119.148438 18.285156 L 118.265625 18.359375 L 117.671875 18.652344 L 117.378906 19.023438 L 117.230469 19.46875 L 117.230469 20.355469 L 117.601562 20.949219 L 118.191406 21.464844 L 120.84375 22.796875 L 121.507812 23.316406 L 121.875 23.6875 L 122.246094 24.277344 L 122.464844 25.019531 L 122.464844 26.128906 L 122.171875 26.941406 L 121.730469 27.535156 L 121.066406 28.125 L 120.476562 28.421875 L 119.589844 28.644531 L 118.042969 28.644531 L 116.789062 28.273438 L 116.347656 28.125 L 115.683594 28.496094 L 115.535156 28.421875 L 115.535156 25.460938 L 115.609375 25.238281 L 115.976562 25.238281 L 116.273438 25.90625 L 116.789062 26.941406 L 117.378906 27.609375 L 117.96875 27.902344 L 118.265625 27.976562 L 119.589844 27.976562 L 120.328125 27.683594 L 120.769531 27.089844 L 120.917969 26.425781 L 120.84375 25.683594 L 120.402344 24.796875 L 119.664062 24.277344 L 117.15625 23.09375 L 116.421875 22.503906 L 115.976562 21.835938 L 115.683594 21.023438 L 115.683594 20.058594 L 115.90625 19.320312 L 116.347656 18.652344 L 116.863281 18.210938 L 117.601562 17.839844 L 118.117188 17.691406 Z M 118.78125 17.617188 "/>
<path style=" stroke:none;fill-rule:nonzero;fill:rgb(83.137256%,66.666669%,30.588236%);fill-opacity:1;" d="M 95.628906 20.726562 L 96.734375 20.800781 L 97.617188 21.097656 L 98.136719 21.613281 L 98.429688 22.355469 L 98.503906 27.609375 L 99.609375 27.828125 L 99.683594 28.050781 L 99.390625 28.347656 L 98.578125 28.570312 L 97.617188 28.570312 L 97.03125 28.050781 L 96.957031 27.609375 L 96.585938 27.828125 L 95.851562 28.347656 L 95.1875 28.570312 L 94.816406 28.644531 L 94.226562 28.644531 L 93.636719 28.496094 L 92.972656 28.050781 L 92.605469 27.3125 L 92.605469 26.277344 L 92.972656 25.535156 L 93.5625 25.019531 L 94.597656 24.574219 L 95.996094 24.203125 L 96.808594 24.054688 L 96.808594 22.796875 L 96.585938 21.910156 L 96.21875 21.539062 L 95.996094 21.390625 L 95.40625 21.316406 L 94.742188 21.464844 L 94.449219 21.761719 L 94.671875 22.207031 L 94.671875 22.796875 L 94.375 23.167969 L 93.636719 23.316406 L 93.269531 23.167969 L 93.046875 22.871094 L 93.046875 22.207031 L 93.417969 21.613281 L 94.007812 21.171875 L 94.671875 20.875 Z M 96.585938 24.425781 L 95.40625 24.871094 L 94.671875 25.3125 L 94.300781 25.90625 L 94.226562 26.128906 L 94.226562 27.015625 L 94.449219 27.386719 L 94.671875 27.609375 L 95.1875 27.753906 L 95.921875 27.683594 L 96.511719 27.3125 L 96.882812 26.867188 L 96.882812 24.5 Z M 96.585938 24.425781 "/>
<path style=" stroke:none;fill-rule:nonzero;fill:rgb(83.137256%,66.666669%,30.19608%);fill-opacity:1;" d="M 76.605469 20.875 L 78.597656 20.875 L 78.964844 21.023438 L 78.597656 21.390625 L 78.082031 21.613281 L 78.226562 22.355469 L 79.40625 25.535156 L 79.703125 26.203125 L 79.703125 26.351562 L 79.921875 26.351562 L 80.144531 25.609375 L 81.03125 23.316406 L 81.472656 21.910156 L 81.398438 21.539062 L 80.660156 21.316406 L 80.585938 21.023438 L 80.660156 20.949219 L 83.242188 20.949219 L 83.167969 21.246094 L 82.503906 21.6875 L 82.0625 22.574219 L 81.25 24.796875 L 80.292969 27.089844 L 79.261719 29.605469 L 78.742188 30.640625 L 78.082031 31.53125 L 77.417969 31.972656 L 76.902344 32.121094 L 76.238281 32.046875 L 75.796875 31.75 L 75.574219 31.308594 L 75.648438 30.863281 L 76.015625 30.492188 L 76.164062 30.417969 L 76.828125 30.492188 L 77.417969 30.863281 L 77.710938 30.789062 L 78.15625 30.273438 L 78.742188 29.160156 L 78.890625 28.570312 L 78.449219 27.3125 L 77.417969 24.722656 L 76.382812 22.207031 L 76.089844 21.6875 L 76.089844 21.539062 L 75.722656 21.390625 L 75.351562 21.171875 L 75.351562 20.949219 Z M 76.605469 20.875 "/>
<path style=" stroke:none;fill-rule:nonzero;fill:rgb(96.470588%,81.568629%,44.313726%);fill-opacity:1;" d="M 71.371094 20.726562 L 72.476562 20.726562 L 73.289062 20.949219 L 74.023438 21.390625 L 74.46875 21.984375 L 74.761719 22.722656 L 74.835938 23.019531 L 74.835938 24.351562 L 70.042969 24.351562 L 70.191406 25.609375 L 70.484375 26.425781 L 71.003906 27.089844 L 71.738281 27.460938 L 72.109375 27.535156 L 72.84375 27.535156 L 73.507812 27.386719 L 74.097656 26.941406 L 74.46875 26.570312 L 74.835938 26.71875 L 74.761719 27.089844 L 74.171875 27.828125 L 73.507812 28.347656 L 72.625 28.644531 L 71.738281 28.71875 L 70.855469 28.570312 L 69.824219 28.050781 L 69.234375 27.460938 L 68.789062 26.71875 L 68.421875 25.535156 L 68.421875 23.835938 L 68.71875 22.871094 L 69.234375 21.984375 L 69.96875 21.316406 L 71.003906 20.800781 Z M 71.519531 21.246094 L 71.003906 21.464844 L 70.484375 22.058594 L 70.117188 23.019531 L 70.117188 23.761719 L 73.066406 23.835938 L 73.140625 23.761719 L 73.140625 22.574219 L 72.917969 21.910156 L 72.402344 21.316406 L 72.109375 21.246094 Z M 71.519531 21.246094 "/>
<path style=" stroke:none;fill-rule:nonzero;fill:rgb(83.137256%,66.274512%,30.19608%);fill-opacity:1;" d="M 139.5 20.800781 L 141.046875 20.800781 L 141.859375 21.097656 L 142.300781 21.390625 L 142.816406 21.984375 L 143.109375 22.648438 L 143.183594 23.019531 L 143.183594 24.203125 L 142.816406 24.351562 L 138.390625 24.351562 L 138.464844 25.386719 L 138.761719 26.351562 L 139.203125 26.941406 L 139.570312 27.238281 L 140.085938 27.460938 L 140.457031 27.535156 L 141.121094 27.535156 L 141.929688 27.3125 L 142.445312 26.941406 L 142.742188 26.570312 L 143.109375 26.570312 L 143.183594 26.867188 L 142.742188 27.535156 L 142.226562 28.050781 L 141.195312 28.570312 L 140.898438 28.644531 L 139.5 28.644531 L 138.613281 28.347656 L 137.800781 27.753906 L 137.359375 27.164062 L 136.992188 26.425781 L 136.769531 25.609375 L 136.769531 23.90625 L 136.992188 23.019531 L 137.433594 22.207031 L 138.023438 21.539062 L 138.835938 21.023438 Z M 139.941406 21.246094 L 139.425781 21.390625 L 138.90625 21.835938 L 138.539062 22.574219 L 138.390625 23.09375 L 138.390625 23.613281 L 138.464844 23.761719 L 141.414062 23.761719 L 141.488281 23.6875 L 141.488281 23.019531 L 141.265625 21.984375 L 140.898438 21.464844 L 140.382812 21.246094 Z M 139.941406 21.246094 "/>
<path style=" stroke:none;fill-rule:nonzero;fill:rgb(83.137256%,66.274512%,30.19608%);fill-opacity:1;" d="M 132.273438 20.726562 L 133.304688 20.800781 L 134.042969 21.023438 L 134.707031 21.464844 L 135.148438 22.058594 L 135.441406 22.871094 L 135.515625 23.390625 L 135.515625 24.203125 L 135.148438 24.351562 L 130.722656 24.351562 L 130.722656 25.238281 L 130.945312 26.128906 L 131.386719 26.867188 L 131.976562 27.3125 L 132.714844 27.535156 L 133.527344 27.535156 L 134.261719 27.3125 L 134.707031 27.015625 L 135.074219 26.570312 L 135.441406 26.570312 L 135.515625 26.867188 L 135.074219 27.535156 L 134.558594 28.050781 L 133.96875 28.421875 L 133.230469 28.644531 L 132.347656 28.71875 L 131.460938 28.570312 L 130.429688 28.050781 L 129.765625 27.386719 L 129.175781 26.203125 L 129.027344 25.683594 L 129.027344 23.835938 L 129.324219 22.871094 L 129.765625 22.132812 L 130.0625 21.761719 L 130.871094 21.171875 L 131.535156 20.875 Z M 132.125 21.246094 L 131.535156 21.539062 L 131.09375 22.058594 L 130.722656 22.945312 L 130.648438 23.6875 L 130.722656 23.761719 L 133.820312 23.761719 L 133.820312 22.871094 L 133.671875 22.132812 L 133.453125 21.6875 L 133.007812 21.316406 L 132.789062 21.246094 Z M 132.125 21.246094 "/>
<path style=" stroke:none;fill-rule:nonzero;fill:rgb(96.078432%,81.176472%,43.921569%);fill-opacity:1;" d="M 146.355469 16.878906 L 146.871094 16.878906 L 146.945312 27.609375 L 147.164062 27.828125 L 147.902344 28.125 L 147.902344 28.421875 L 144.21875 28.421875 L 144.21875 28.125 L 144.878906 27.902344 L 145.101562 27.683594 L 145.175781 27.386719 L 145.25 24.351562 L 145.25 19.617188 L 145.175781 18.210938 L 144.953125 17.839844 L 143.996094 17.542969 L 144.070312 17.25 L 144.144531 17.175781 Z M 146.355469 16.878906 "/>
<path style=" stroke:none;fill-rule:nonzero;fill:rgb(96.078432%,81.176472%,43.921569%);fill-opacity:1;" d="M 125.929688 18.652344 L 126.078125 18.726562 L 126.078125 20.875 L 128.070312 20.875 L 128.21875 21.097656 L 128.144531 21.539062 L 126.152344 21.613281 L 126.152344 26.867188 L 126.375 27.386719 L 126.742188 27.609375 L 127.039062 27.683594 L 127.554688 27.683594 L 128.21875 27.535156 L 128.4375 27.753906 L 128.070312 28.199219 L 127.183594 28.570312 L 126.816406 28.644531 L 125.710938 28.644531 L 125.121094 28.347656 L 124.75 27.902344 L 124.53125 27.089844 L 124.53125 21.613281 L 123.351562 21.539062 L 123.351562 21.097656 L 123.5 20.949219 L 124.382812 20.875 L 124.53125 20.800781 L 124.605469 19.023438 L 124.824219 18.875 Z M 125.929688 18.652344 "/>
<path style=" stroke:none;fill-rule:nonzero;fill:rgb(96.078432%,81.176472%,43.921569%);fill-opacity:1;" d="M 104.84375 20.726562 L 105.582031 20.800781 L 106.023438 21.023438 L 106.246094 21.316406 L 106.320312 21.984375 L 106.097656 22.429688 L 105.875 22.648438 L 105.214844 22.722656 L 104.84375 22.574219 L 104.625 22.355469 L 104.328125 21.761719 L 103.960938 21.835938 L 103.222656 22.503906 L 103.074219 22.796875 L 103 23.761719 L 103 27.460938 L 103.074219 27.683594 L 103.445312 27.902344 L 104.179688 28.050781 L 104.253906 28.347656 L 104.179688 28.421875 L 100.273438 28.421875 L 100.421875 28.125 L 101.085938 27.828125 L 101.304688 27.535156 L 101.304688 22.058594 L 101.011719 21.761719 L 100.347656 21.539062 L 100.273438 21.246094 L 100.496094 21.097656 L 102.410156 20.800781 L 102.855469 20.800781 L 102.929688 20.875 L 102.929688 21.835938 L 103.296875 21.613281 L 104.035156 21.023438 Z M 104.84375 20.726562 "/>
<path style=" stroke:none;fill-rule:nonzero;fill:rgb(96.470588%,81.568629%,44.313726%);fill-opacity:1;" d="M 89.953125 16.878906 L 90.613281 16.878906 L 90.613281 19.542969 L 90.539062 23.613281 L 90.097656 23.539062 L 89.730469 23.613281 L 89.433594 23.539062 L 89.140625 23.6875 L 88.992188 23.835938 L 88.84375 22.058594 L 88.550781 21.6875 L 88.109375 21.464844 L 87.8125 21.390625 L 87.222656 21.390625 L 86.558594 21.613281 L 86.191406 21.910156 L 85.820312 22.503906 L 85.527344 23.390625 L 85.453125 23.761719 L 85.378906 25.09375 L 85.234375 24.871094 L 85.234375 24.054688 L 85.085938 24.054688 L 84.714844 23.6875 L 84.273438 23.613281 L 83.980469 23.6875 L 84.054688 24.128906 L 83.683594 24.277344 L 83.757812 23.613281 L 84.125 22.648438 L 84.570312 21.984375 L 85.234375 21.390625 L 86.117188 20.949219 L 86.707031 20.800781 L 87.886719 20.800781 L 88.992188 21.097656 L 88.917969 18.210938 L 88.625 17.765625 L 87.738281 17.617188 L 87.664062 17.25 L 88.035156 17.101562 Z M 89.953125 16.878906 "/>
<path style=" stroke:none;fill-rule:nonzero;fill:rgb(82.745099%,65.882355%,29.803923%);fill-opacity:1;" d="M 109.34375 20.800781 L 109.488281 20.800781 L 109.5625 20.949219 L 109.5625 27.609375 L 109.785156 27.828125 L 110.523438 28.125 L 110.523438 28.421875 L 106.910156 28.421875 L 106.984375 28.125 L 107.648438 27.828125 L 107.867188 27.535156 L 107.941406 22.355469 L 107.71875 21.835938 L 107.574219 21.761719 L 106.835938 21.6875 L 106.761719 21.316406 L 106.984375 21.171875 Z M 109.34375 20.800781 "/>
<path style=" stroke:none;fill-rule:nonzero;fill:rgb(83.137256%,66.274512%,30.19608%);fill-opacity:1;" d="M 119.8125 23.835938 L 121.65625 23.835938 L 121.65625 23.980469 L 122.171875 24.128906 L 122.390625 24.648438 L 122.464844 25.019531 L 122.464844 26.128906 L 122.171875 26.941406 L 121.730469 27.535156 L 121.066406 28.125 L 120.476562 28.421875 L 119.589844 28.644531 L 118.042969 28.644531 L 116.789062 28.273438 L 116.347656 28.125 L 115.683594 28.496094 L 115.535156 28.421875 L 115.535156 25.460938 L 115.609375 25.238281 L 115.976562 25.238281 L 116.273438 25.90625 L 116.789062 26.941406 L 117.378906 27.609375 L 117.96875 27.902344 L 118.265625 27.976562 L 119.589844 27.976562 L 120.328125 27.683594 L 120.769531 27.089844 L 120.917969 26.425781 L 120.84375 25.683594 L 120.402344 24.796875 L 119.738281 24.277344 L 119.664062 24.054688 Z M 119.8125 23.835938 "/>
<path style=" stroke:none;fill-rule:nonzero;fill:rgb(83.137256%,66.666669%,30.19608%);fill-opacity:1;" d="M 69.898438 23.761719 L 70.191406 23.761719 L 70.117188 24.054688 L 70.191406 24.277344 L 70.042969 24.277344 L 70.191406 25.609375 L 70.484375 26.425781 L 71.003906 27.089844 L 71.738281 27.460938 L 72.109375 27.535156 L 72.84375 27.535156 L 73.507812 27.386719 L 74.097656 26.941406 L 74.46875 26.570312 L 74.835938 26.71875 L 74.761719 27.089844 L 74.171875 27.828125 L 73.507812 28.347656 L 72.625 28.644531 L 71.738281 28.71875 L 70.855469 28.570312 L 69.824219 28.050781 L 69.234375 27.460938 L 68.789062 26.71875 L 68.421875 25.535156 L 68.421875 24.796875 L 68.644531 24.871094 L 68.570312 24.351562 L 69.234375 24.054688 L 69.824219 23.90625 Z M 69.898438 23.761719 "/>
<path style=" stroke:none;fill-rule:nonzero;fill:rgb(96.470588%,81.568629%,44.313726%);fill-opacity:1;" d="M 132.273438 20.726562 L 133.304688 20.800781 L 134.042969 21.023438 L 134.707031 21.464844 L 135.148438 22.058594 L 135.441406 22.871094 L 135.515625 23.390625 L 135.515625 24.203125 L 135.148438 24.351562 L 134.335938 24.351562 L 133.007812 24.277344 L 132.863281 24.203125 L 132.9375 23.90625 L 130.871094 23.835938 L 130.871094 23.761719 L 133.820312 23.761719 L 133.671875 22.355469 L 133.378906 21.6875 L 133.007812 21.390625 L 132.789062 21.316406 L 132.125 21.316406 L 131.535156 21.613281 L 131.09375 22.207031 L 130.796875 22.945312 L 130.578125 23.613281 L 130.0625 23.613281 L 129.691406 23.464844 L 129.324219 23.6875 L 129.101562 24.128906 L 129.027344 23.835938 L 129.324219 22.871094 L 129.765625 22.132812 L 130.0625 21.761719 L 130.871094 21.171875 L 131.535156 20.875 Z M 132.273438 20.726562 "/>
<path style=" stroke:none;fill-rule:nonzero;fill:rgb(82.745099%,65.882355%,29.803923%);fill-opacity:1;" d="M 57.582031 23.167969 L 57.65625 23.167969 L 57.804688 23.6875 L 59.207031 23.6875 L 59.28125 23.761719 L 59.351562 27.609375 L 59.648438 27.828125 L 60.386719 28.050781 L 60.460938 28.421875 L 56.476562 28.421875 L 56.402344 28.125 L 57.140625 27.828125 L 57.4375 27.535156 Z M 57.582031 23.167969 "/>
<path style=" stroke:none;fill-rule:nonzero;fill:rgb(82.745099%,65.882355%,29.803923%);fill-opacity:1;" d="M 125.636719 23.613281 L 125.929688 23.613281 L 126.078125 24.128906 L 126.152344 26.867188 L 126.375 27.386719 L 126.742188 27.609375 L 127.039062 27.683594 L 127.554688 27.683594 L 128.21875 27.535156 L 128.4375 27.753906 L 128.070312 28.199219 L 127.183594 28.570312 L 126.816406 28.644531 L 125.710938 28.644531 L 125.121094 28.347656 L 124.75 27.902344 L 124.53125 27.089844 L 124.53125 24.425781 L 124.679688 23.761719 L 125.34375 23.835938 Z M 125.636719 23.613281 "/>
<path style=" stroke:none;fill-rule:nonzero;fill:rgb(82.745099%,66.274512%,29.803923%);fill-opacity:1;" d="M 65.105469 23.6875 L 65.621094 23.6875 L 65.914062 23.835938 L 65.988281 24.054688 L 66.0625 26.792969 L 66.136719 27.460938 L 66.503906 27.828125 L 67.242188 28.125 L 67.242188 28.421875 L 63.1875 28.421875 L 63.113281 28.273438 L 63.261719 28.050781 L 63.925781 27.902344 L 64.21875 27.609375 L 64.292969 27.386719 L 64.367188 24.5 L 64.515625 23.90625 L 64.734375 23.761719 Z M 65.105469 23.6875 "/>
<path style=" stroke:none;fill-rule:nonzero;fill:rgb(82.745099%,65.882355%,29.803923%);fill-opacity:1;" d="M 101.453125 23.464844 L 102.707031 23.539062 L 102.929688 23.613281 L 103 27.460938 L 103.074219 27.683594 L 103.445312 27.902344 L 104.179688 28.050781 L 104.253906 28.347656 L 104.179688 28.421875 L 100.273438 28.421875 L 100.421875 28.125 L 101.085938 27.828125 L 101.304688 27.535156 L 101.378906 24.871094 Z M 101.453125 23.464844 "/>
<path style=" stroke:none;fill-rule:nonzero;fill:rgb(83.529413%,66.666669%,30.588236%);fill-opacity:1;" d="M 146.648438 23.613281 L 146.796875 23.613281 L 146.871094 23.90625 L 146.945312 27.609375 L 147.164062 27.828125 L 147.902344 28.125 L 147.902344 28.421875 L 144.21875 28.421875 L 144.21875 28.125 L 144.878906 27.902344 L 145.101562 27.683594 L 145.175781 27.386719 L 145.25 24.351562 L 145.398438 23.835938 L 145.914062 23.6875 Z M 146.648438 23.613281 "/>
<path style=" stroke:none;fill-rule:nonzero;fill:rgb(96.078432%,81.176472%,43.921569%);fill-opacity:1;" d="M 95.628906 20.726562 L 96.734375 20.800781 L 97.617188 21.097656 L 98.136719 21.613281 L 98.429688 22.355469 L 98.429688 23.980469 L 98.210938 23.761719 L 97.691406 23.835938 L 97.03125 23.835938 L 96.957031 24.054688 L 96.882812 24.054688 L 96.808594 22.796875 L 96.585938 21.910156 L 96.21875 21.539062 L 95.996094 21.390625 L 95.40625 21.316406 L 94.742188 21.464844 L 94.449219 21.761719 L 94.671875 22.207031 L 94.671875 22.796875 L 94.375 23.167969 L 93.636719 23.316406 L 93.269531 23.167969 L 93.046875 22.871094 L 93.046875 22.207031 L 93.417969 21.613281 L 94.007812 21.171875 L 94.671875 20.875 Z M 95.628906 20.726562 "/>
<path style=" stroke:none;fill-rule:nonzero;fill:rgb(96.470588%,81.568629%,44.313726%);fill-opacity:1;" d="M 76.605469 20.875 L 78.597656 20.875 L 78.964844 21.023438 L 78.597656 21.390625 L 78.082031 21.613281 L 78.226562 22.355469 L 79.335938 25.3125 L 79.1875 25.386719 L 78.964844 24.945312 L 78.816406 24.5 L 78.449219 24.351562 L 78.007812 24.351562 L 77.785156 24.5 L 77.710938 25.019531 L 77.859375 25.460938 L 77.710938 25.460938 L 76.457031 22.355469 L 76.089844 21.6875 L 76.089844 21.539062 L 75.722656 21.390625 L 75.351562 21.171875 L 75.351562 20.949219 Z M 76.605469 20.875 "/>
<path style=" stroke:none;fill-rule:nonzero;fill:rgb(96.470588%,81.568629%,44.313726%);fill-opacity:1;" d="M 139.5 20.800781 L 141.046875 20.800781 L 141.859375 21.097656 L 142.300781 21.390625 L 142.816406 21.984375 L 143.109375 22.648438 L 143.183594 23.019531 L 143.183594 24.203125 L 143.109375 24.203125 L 143.039062 23.09375 L 142.890625 23.09375 L 142.59375 22.648438 L 142.375 22.722656 L 142.300781 23.09375 L 141.929688 23.316406 L 141.785156 23.316406 L 141.710938 23.539062 L 141.488281 23.539062 L 141.265625 22.207031 L 141.046875 21.761719 L 140.679688 21.390625 L 139.941406 21.316406 L 139.425781 21.464844 L 138.980469 21.835938 L 138.613281 22.574219 L 138.464844 23.09375 L 137.949219 22.648438 L 137.800781 22.503906 L 137.433594 22.574219 L 137.359375 23.09375 L 137.140625 23.09375 L 137.066406 23.464844 L 136.84375 23.6875 L 136.992188 23.019531 L 137.433594 22.207031 L 138.023438 21.539062 L 138.835938 21.023438 Z M 139.5 20.800781 "/>
<path style=" stroke:none;fill-rule:nonzero;fill:rgb(96.470588%,81.568629%,44.313726%);fill-opacity:1;" d="M 109.34375 20.800781 L 109.488281 20.800781 L 109.5625 20.949219 L 109.5625 22.429688 L 109.488281 23.613281 L 109.195312 23.6875 L 108.457031 23.6875 L 108.164062 23.539062 L 108.089844 23.613281 L 108.015625 24.351562 L 107.941406 24.351562 L 107.941406 22.355469 L 107.71875 21.835938 L 107.574219 21.761719 L 106.835938 21.6875 L 106.761719 21.316406 L 106.984375 21.171875 Z M 109.34375 20.800781 "/>
<path style=" stroke:none;fill-rule:nonzero;fill:rgb(96.470588%,81.568629%,44.313726%);fill-opacity:1;" d="M 80.660156 20.949219 L 83.242188 20.949219 L 83.167969 21.246094 L 82.503906 21.6875 L 82.0625 22.574219 L 81.25 24.796875 L 80.585938 26.351562 L 80.441406 26.277344 L 80.660156 25.609375 L 80.367188 25.609375 L 80.292969 25.757812 L 80.144531 25.757812 L 80.367188 25.09375 L 81.175781 22.871094 L 81.472656 21.910156 L 81.398438 21.539062 L 80.660156 21.316406 L 80.585938 21.023438 Z M 80.660156 20.949219 "/>
<path style=" stroke:none;fill-rule:nonzero;fill:rgb(96.470588%,81.568629%,44.313726%);fill-opacity:1;" d="M 108.53125 17.027344 L 109.269531 17.175781 L 109.636719 17.542969 L 109.710938 17.691406 L 109.710938 18.433594 L 109.414062 18.875 L 109.046875 19.097656 L 108.382812 19.097656 L 107.941406 18.800781 L 107.71875 18.433594 L 107.648438 17.988281 L 107.867188 17.394531 L 108.308594 17.101562 Z M 108.53125 17.027344 "/>
<path style=" stroke:none;fill-rule:nonzero;fill:rgb(82.745099%,65.882355%,29.803923%);fill-opacity:1;" d="M 89.953125 17.324219 L 90.246094 17.46875 L 90.46875 17.839844 L 90.539062 18.285156 L 90.539062 19.46875 L 90.394531 19.617188 L 89.953125 19.246094 L 89.730469 19.246094 L 89.359375 19.171875 L 89.289062 18.800781 L 89.433594 17.839844 L 89.582031 17.542969 L 89.730469 17.542969 L 89.730469 17.394531 Z M 89.953125 17.324219 "/>
<path style=" stroke:none;fill-rule:nonzero;fill:rgb(82.745099%,65.882355%,29.803923%);fill-opacity:1;" d="M 142.519531 22.574219 L 142.890625 22.945312 L 142.890625 23.09375 L 143.039062 23.09375 L 143.109375 23.390625 L 143.109375 24.277344 L 141.859375 24.277344 L 141.195312 24.203125 L 141.121094 23.90625 L 141.339844 23.835938 L 141.488281 23.539062 L 141.710938 23.464844 L 141.929688 23.242188 L 142.300781 23.019531 L 142.375 22.722656 L 142.519531 22.722656 Z M 142.519531 22.574219 "/>
<path style=" stroke:none;fill-rule:nonzero;fill:rgb(82.745099%,65.882355%,29.803923%);fill-opacity:1;" d="M 134.925781 23.316406 L 135.296875 23.316406 L 135.148438 23.761719 L 135.367188 23.761719 L 135.441406 24.277344 L 134.558594 24.277344 L 134.1875 24.203125 L 134.1875 23.835938 Z M 134.925781 23.316406 "/>
<path style=" stroke:none;fill-rule:nonzero;fill:rgb(82.745099%,65.882355%,29.803923%);fill-opacity:1;" d="M 96.734375 21.097656 L 97.101562 21.097656 L 97.472656 21.539062 L 97.472656 21.910156 L 97.324219 21.910156 L 97.324219 22.058594 L 97.175781 22.058594 L 97.101562 22.28125 L 96.957031 22.28125 L 96.808594 21.613281 L 96.585938 21.464844 L 96.660156 21.171875 Z M 96.734375 21.097656 "/>
<path style=" stroke:none;fill-rule:nonzero;fill:rgb(82.745099%,65.882355%,29.803923%);fill-opacity:1;" d="M 39.152344 18.136719 L 39.519531 18.210938 L 40.183594 18.136719 L 40.550781 18.285156 L 40.40625 18.433594 L 38.117188 18.433594 L 38.191406 18.285156 L 38.855469 18.210938 Z M 39.152344 18.136719 "/>
<path style=" stroke:none;fill-rule:nonzero;fill:rgb(96.470588%,81.568629%,44.313726%);fill-opacity:1;" d="M 141.121094 24.128906 L 142.816406 24.277344 L 142.816406 24.351562 L 138.90625 24.351562 L 138.90625 24.277344 L 140.824219 24.203125 Z M 141.121094 24.128906 "/>
<path style=" stroke:none;fill-rule:nonzero;fill:rgb(96.470588%,81.568629%,44.313726%);fill-opacity:1;" d="M 115.609375 25.238281 L 115.976562 25.238281 L 116.125 25.609375 L 115.683594 25.535156 L 115.609375 28.421875 L 115.535156 28.421875 L 115.535156 25.460938 Z M 115.609375 25.238281 "/>
<path style=" stroke:none;fill-rule:nonzero;fill:rgb(96.470588%,81.568629%,44.313726%);fill-opacity:1;" d="M 39.667969 22.207031 L 40.773438 22.207031 L 40.992188 22.355469 L 40.921875 23.019531 L 40.847656 23.019531 L 40.847656 22.355469 L 40.109375 22.355469 L 40.109375 22.503906 L 39.8125 22.503906 L 39.8125 22.355469 L 39.445312 22.355469 Z M 39.667969 22.207031 "/>
<path style=" stroke:none;fill-rule:nonzero;fill:rgb(96.470588%,81.568629%,44.313726%);fill-opacity:1;" d="M 138.6875 23.761719 L 141.414062 23.761719 L 141.195312 24.054688 L 140.972656 24.054688 L 140.972656 23.90625 L 138.6875 23.835938 Z M 138.6875 23.761719 "/>
<path style=" stroke:none;fill-rule:nonzero;fill:rgb(96.470588%,81.568629%,44.313726%);fill-opacity:1;" d="M 56.847656 27.976562 L 56.992188 28.050781 L 56.921875 28.273438 L 57.953125 28.347656 L 57.953125 28.421875 L 56.476562 28.421875 L 56.402344 28.125 Z M 56.847656 27.976562 "/>
<path style=" stroke:none;fill-rule:nonzero;fill:rgb(96.470588%,81.568629%,44.313726%);fill-opacity:1;" d="M 1.476562 27.238281 L 1.695312 27.3125 L 1.695312 27.828125 L 1.769531 27.976562 L 1.769531 28.71875 L 1.621094 28.570312 L 1.476562 27.683594 Z M 1.476562 27.238281 "/>
<path style=" stroke:none;fill-rule:nonzero;fill:rgb(96.078432%,80.784315%,43.921569%);fill-opacity:1;" d="M 96.511719 24.128906 L 96.808594 24.203125 L 96.660156 24.203125 L 96.660156 24.351562 L 96.808594 24.425781 L 95.996094 24.648438 L 96.21875 24.277344 L 95.996094 24.203125 Z M 96.511719 24.128906 "/>
<path style=" stroke:none;fill-rule:nonzero;fill:rgb(96.470588%,81.568629%,44.313726%);fill-opacity:1;" d="M 74.46875 26.570312 L 74.835938 26.71875 L 74.761719 27.089844 L 74.46875 27.386719 L 74.617188 26.941406 L 74.542969 26.792969 L 74.320312 26.792969 L 74.320312 26.644531 Z M 74.46875 26.570312 "/>
<path style=" stroke:none;fill-rule:nonzero;fill:rgb(96.470588%,81.568629%,44.313726%);fill-opacity:1;" d="M 60.015625 27.976562 L 60.460938 28.125 L 60.460938 28.421875 L 60.015625 28.421875 L 60.164062 28.125 L 60.015625 28.125 Z M 60.015625 27.976562 "/>
</g>
</svg>
